Coordinates
version=1
nRows=7
nColumns=40
inDegrees=yes

Units are S.I. units (second, meters, Newtons, ...)
If the header above contains a line with 'inDegrees', this indicates whether rotational values are in degrees (yes) or radians (no).

endheader
time	pelvis_tilt	pelvis_list	pelvis_rotation	pelvis_tx	pelvis_ty	pelvis_tz	hip_flexion_r	hip_adduction_r	hip_rotation_r	knee_angle_r	knee_angle_r_beta	ankle_angle_r	subtalar_angle_r	mtp_angle_r	hip_flexion_l	hip_adduction_l	hip_rotation_l	knee_angle_l	knee_angle_l_beta	ankle_angle_l	subtalar_angle_l	mtp_angle_l	lumbar_extension	lumbar_bending	lumbar_rotation	arm_flex_r	arm_add_r	arm_rot_r	elbow_flex_r	pro_sup_r	wrist_flex_r	wrist_dev_r	arm_flex_l	arm_add_l	arm_rot_l	elbow_flex_l	pro_sup_l	wrist_flex_l	wrist_dev_l
     17.10000000000000142109	      9.47633278083320895746	     -3.57586278368306720310	   -179.55978280865048191117	      0.27528106115177281010	      0.65232479067060811229	     -0.95154513311716393265	     77.47415337925365008687	    -49.53885522062662261078	      2.12606508141726102679	     76.45966704569515570711	      1.33447293492598606512	      6.16860910172912024763	      0.00000000000000000000	      0.00000000000000000000	     67.99264757031585304503	    -44.75211028369865573495	     -5.70827882109501416608	     76.33616177842718286684	      1.33231736136860434705	     10.06846842308207179428	      0.00000000000000000000	      0.00000000000000000000	    -58.97487500352692535444	     -0.88519580825458399342	     -3.29985812061645589210	     50.27605807693775830103	    -10.76069164808084543949	     36.60019744428842614070	      6.53125083752748558652	     52.33393285874650047163	      0.00000000000000000000	      0.00000000000000000000	     56.10197611515862803344	    -17.45304261992274419413	     42.82050460249698176085	     22.25427431478699347167	     80.84917288252745493082	      0.00000000000000000000	      0.00000000000000000000
     17.10500000000000042633	      9.35599862074007582180	     -3.64452970911644680285	   -179.57984838959575313311	      0.27515649238059297632	      0.65297300595850171767	     -0.95158701042093751798	     77.31161350207030125148	    -49.54935009511682864058	      2.13661894335456414851	     76.36645299468214886929	      1.33284604282668728281	      6.19592112690546947817	      0.00000000000000000000	      0.00000000000000000000	     67.62468609798033014613	    -44.71932753306073493604	     -5.93809779341474897052	     76.20913291133980749237	      1.33010028939285152028	     10.21755844586044226219	      0.00000000000000000000	      0.00000000000000000000	    -59.16064513514655232029	     -0.92800924578393817477	     -3.39702218645132036912	     50.49416575791204309098	    -10.52503925294449160788	     36.38943029365458414759	      6.18301564513940693502	     51.34085085648050039708	      0.00000000000000000000	      0.00000000000000000000	     56.27605087383758331043	    -17.53693441723672918897	     43.31751725226411053882	     22.08561361290339064567	     81.59461488621164448887	      0.00000000000000000000	      0.00000000000000000000
     17.10999999999999943157	      9.46296045979691058392	     -3.57027392862533154982	   -179.54891195043549600996	      0.27523303995342668360	      0.65293668743876509541	     -0.95146007499517060158	     77.31109592258817997390	    -49.53454927993451661905	      2.02038439036734018828	     76.32779742958327062752	      1.33217137594149281909	      6.11953237003293626373	      0.00000000000000000000	      0.00000000000000000000	     67.84330075330990439397	    -44.66521529075873075953	     -5.72920516055460637972	     76.20962900675752393909	      1.33010894789129463511	     10.21326307889523121730	      0.00000000000000000000	      0.00000000000000000000	    -59.05229252889176905228	     -0.82456528953026619888	     -3.39152250652992126589	     50.40819868968868178172	    -10.54664412222466474134	     37.27269525550833861871	      6.15434559301117989349	     50.48239498021841598074	      0.00000000000000000000	      0.00000000000000000000	     56.24445430848146543212	    -17.37088593782568324286	     43.27038760254323079835	     21.81645472054628598357	     79.26248066270940739741	      0.00000000000000000000	      0.00000000000000000000
     17.11499999999999843681	      9.43437694430984663541	     -3.58514811589432236261	   -179.57178369581214383288	      0.27505872019556992791	      0.65326555748254955258	     -0.95146162663452360508	     77.23793873073257998385	    -49.54092667231135038719	      1.98550219483415668620	     76.28774456427152017568	      1.33147232156694506067	      6.15778207921683495840	      0.00000000000000000000	      0.00000000000000000000	     67.72842513237661421499	    -44.71279635298730426030	     -5.85731096231875447700	     76.17672825703442640588	      1.32953472148225215754	     10.16769004704582357590	      0.00000000000000000000	      0.00000000000000000000	    -59.14244441598971491203	     -0.87278988807202051436	     -3.31756292810798125714	     50.29574433583606207776	    -10.71771828002949256131	     37.16528197837822489191	      6.59617331189156086424	     50.28911090095806457612	      0.00000000000000000000	      0.00000000000000000000	     56.19029060767464045512	    -17.38431404351875642078	     43.20587373148330101458	     22.13742984721640993939	     78.93433364560092968532	      0.00000000000000000000	      0.00000000000000000000
     17.12000000000000099476	      9.27972395824745888149	     -3.57732842697655728514	   -179.58883076236256215452	      0.27486342452568063299	      0.65390149967759103600	     -0.95150356861329321578	     76.94133478573361628605	    -49.55856539536668492474	      1.83827378874819502563	     76.22022843356258192671	      1.33029394278786705641	      6.21144708938351719496	      0.00000000000000000000	      0.00000000000000000000	     67.44463796153829093782	    -44.74331162440655162982	     -5.97404129503265135526	     76.09026897597320271416	      1.32802572235882654361	     10.20182222185643183821	      0.00000000000000000000	      0.00000000000000000000	    -59.36689848401698554881	     -0.87249269551088193264	     -3.30800609343739715484	     50.34769991633849173240	    -10.69993528271433014254	     37.19721969669823380400	      6.68792641184906955232	     49.51044957678350044716	      0.00000000000000000000	      0.00000000000000000000	     56.32436877291042520710	    -17.35944672160179891307	     43.46019979895309859330	     22.00619499447698501626	     78.36065860425884466167	      0.00000000000000000000	      0.00000000000000000000
     17.12500000000000000000	      9.39430044214750203935	     -3.55018123523926121266	   -179.57393264101293084423	      0.27488217452558610931	      0.65385739843964318929	     -0.95144557624814996011	     76.99960201017695737846	    -49.54405240679370336920	      1.77942197930914103310	     76.18767477861386794302	      1.32972577432545380205	      6.20535040908112822677	      0.00000000000000000000	      0.00000000000000000000	     67.59553453997021676969	    -44.70953318052563929541	     -5.89603215469650443481	     76.07829429449184033274	      1.32781672474009915241	     10.22248219679389080738	      0.00000000000000000000	      0.00000000000000000000	    -59.27370208949734120552	     -0.84109051719926952728	     -3.30135155912465760863	     50.32704452588399135493	    -10.68062950927937748702	     37.14549767378475308988	      6.69430763011650853400	     49.51179214306631592990	      0.00000000000000000000	      0.00000000000000000000	     56.31686562859725597718	    -17.37740705754889702916	     43.46717267886708668811	     22.02534092299979917584	     78.48624690809344883746	      0.00000000000000000000	      0.00000000000000000000
     17.12999999999999900524	      9.58670873745501062047	     -3.51827572695083867771	   -179.53955304869441533810	      0.27501937780308494119	      0.65359038693714599511	     -0.95128693577998657549	     77.19241428051543607580	    -49.52881277167657714244	      1.77659075432427226993	     76.17569793277218082039	      1.32951673893151256500	      6.07266367858604994012	      0.00000000000000000000	      0.00000000000000000000	     67.90499219030469646441	    -44.62575418509707247949	     -5.70195093104587957811	     76.09812341070305308222	      1.32816280810574549598	     10.13711851532513819052	      0.00000000000000000000	      0.00000000000000000000	    -59.05985948251917960761	     -0.78632426457072823744	     -3.28787792205284112868	     50.26369227726830501979	    -10.66670418687011157033	     37.52555062761053505938	      6.48918079293744565206	     48.86230011515720406123	      0.00000000000000000000	      0.00000000000000000000	     56.33727135226349957975	    -17.23923366591434813699	     43.60045194568515114497	     21.76148331905197963465	     77.37630896546288283844	      0.00000000000000000000	      0.00000000000000000000
